<svg width="99" height="99" viewBox="0 0 99 99" fill="none" xmlns="http://www.w3.org/2000/svg">
<circle cx="49.5" cy="49.5" r="49.5" fill="#FFF9E4"/>
<g clip-path="url(#clip0_340_51)">
<path d="M67.5 65.75H32.5V62.25H34.25V36C34.25 35.5359 34.4344 35.0908 34.7626 34.7626C35.0908 34.4344 35.5359 34.25 36 34.25H60.5C60.9641 34.25 61.4093 34.4344 61.7374 34.7626C62.0656 35.0908 62.25 35.5359 62.25 36V44.75H65.75V62.25H67.5V65.75ZM58.75 62.25H62.25V48.25H51.75V62.25H55.25V51.75H58.75V62.25ZM58.75 44.75V37.75H37.75V62.25H48.25V44.75H58.75ZM41.25 48.25H44.75V51.75H41.25V48.25ZM41.25 55.25H44.75V58.75H41.25V55.25ZM41.25 41.25H44.75V44.75H41.25V41.25Z" fill="#283673"/>
</g>
<defs>
<clipPath id="clip0_340_51">
<rect width="42" height="42" fill="white" transform="translate(29 29)"/>
</clipPath>
</defs>
</svg>
