<svg width="40" height="40" viewBox="0 0 40 40" fill="none" xmlns="http://www.w3.org/2000/svg">
<circle cx="19.5273" cy="19.5277" r="19.0277" fill="white" fill-opacity="0.01" stroke="#283673"/>
<g clip-path="url(#clip0_340_15)">
<path d="M19.5265 9.24998C22.319 9.24998 22.6674 9.26026 23.763 9.31165C24.8576 9.36304 25.6027 9.53468 26.2584 9.78957C26.9368 10.0506 27.5082 10.4042 28.0797 10.9746C28.6023 11.4884 29.0067 12.1099 29.2647 12.7958C29.5185 13.4505 29.6912 14.1967 29.7426 15.2912C29.7909 16.3869 29.8043 16.7353 29.8043 19.5277C29.8043 22.3202 29.794 22.6686 29.7426 23.7642C29.6912 24.8588 29.5185 25.6039 29.2647 26.2597C29.0074 26.946 28.6029 27.5676 28.0797 28.0809C27.5657 28.6033 26.9443 29.0077 26.2584 29.2659C25.6038 29.5198 24.8576 29.6924 23.763 29.7438C22.6674 29.7921 22.319 29.8055 19.5265 29.8055C16.7341 29.8055 16.3856 29.7952 15.29 29.7438C14.1955 29.6924 13.4503 29.5198 12.7946 29.2659C12.1084 29.0084 11.4868 28.604 10.9734 28.0809C10.4507 27.5672 10.0463 26.9457 9.78835 26.2597C9.53347 25.605 9.36183 24.8588 9.31044 23.7642C9.26213 22.6686 9.24877 22.3202 9.24877 19.5277C9.24877 16.7353 9.25905 16.3869 9.31044 15.2912C9.36183 14.1956 9.53347 13.4515 9.78835 12.7958C10.0455 12.1094 10.45 11.4878 10.9734 10.9746C11.4869 10.4517 12.1085 10.0473 12.7946 9.78957C13.4503 9.53468 14.1944 9.36304 15.29 9.31165C16.3856 9.26335 16.7341 9.24998 19.5265 9.24998ZM19.5265 14.3889C18.1636 14.3889 16.8565 14.9303 15.8928 15.894C14.9291 16.8577 14.3876 18.1648 14.3876 19.5277C14.3876 20.8906 14.9291 22.1977 15.8928 23.1615C16.8565 24.1252 18.1636 24.6666 19.5265 24.6666C20.8894 24.6666 22.1965 24.1252 23.1603 23.1615C24.124 22.1977 24.6654 20.8906 24.6654 19.5277C24.6654 18.1648 24.124 16.8577 23.1603 15.894C22.1965 14.9303 20.8894 14.3889 19.5265 14.3889ZM26.2071 14.1319C26.2071 13.7912 26.0717 13.4644 25.8308 13.2235C25.5898 12.9825 25.2631 12.8472 24.9223 12.8472C24.5816 12.8472 24.2548 12.9825 24.0139 13.2235C23.773 13.4644 23.6376 13.7912 23.6376 14.1319C23.6376 14.4726 23.773 14.7994 24.0139 15.0403C24.2548 15.2813 24.5816 15.4166 24.9223 15.4166C25.2631 15.4166 25.5898 15.2813 25.8308 15.0403C26.0717 14.7994 26.2071 14.4726 26.2071 14.1319ZM19.5265 16.4444C20.3443 16.4444 21.1285 16.7693 21.7068 17.3475C22.285 17.9257 22.6098 18.71 22.6098 19.5277C22.6098 20.3455 22.285 21.1297 21.7068 21.708C21.1285 22.2862 20.3443 22.6111 19.5265 22.6111C18.7088 22.6111 17.9245 22.2862 17.3463 21.708C16.768 21.1297 16.4432 20.3455 16.4432 19.5277C16.4432 18.71 16.768 17.9257 17.3463 17.3475C17.9245 16.7693 18.7088 16.4444 19.5265 16.4444Z" fill="#050526"/>
</g>
<defs>
<clipPath id="clip0_340_15">
<rect width="24.6666" height="24.6666" fill="white" transform="translate(7.19351 7.19444)"/>
</clipPath>
</defs>
</svg>
