<svg width="40" height="40" viewBox="0 0 40 40" fill="none" xmlns="http://www.w3.org/2000/svg">
<circle cx="19.5277" cy="19.5277" r="19.0277" fill="white" fill-opacity="0.01" stroke="#283673"/>
<g clip-path="url(#clip0_340_10)">
<path d="M29.9722 13.0075C29.1876 13.3546 28.3555 13.5826 27.5035 13.6838C28.4016 13.1467 29.0737 12.3015 29.3946 11.3055C28.5519 11.8071 27.6279 12.1586 26.6649 12.3487C26.018 11.6566 25.1606 11.1976 24.2259 11.043C23.2912 10.8885 22.3317 11.047 21.4965 11.4941C20.6612 11.9411 19.9971 12.6516 19.6073 13.515C19.2174 14.3785 19.1238 15.3465 19.3409 16.2687C17.6319 16.183 15.9599 15.7389 14.4336 14.9651C12.9073 14.1913 11.5608 13.1052 10.4815 11.7773C10.0995 12.4335 9.89873 13.1794 9.89981 13.9387C9.89981 15.429 10.6583 16.7456 11.8115 17.5164C11.129 17.4949 10.4616 17.3106 9.86486 16.9789V17.0323C9.86507 18.0248 10.2085 18.9867 10.837 19.7549C11.4654 20.5231 12.3402 21.0504 13.313 21.2472C12.6795 21.4189 12.0153 21.4442 11.3706 21.3212C11.6448 22.1755 12.1794 22.9227 12.8995 23.4581C13.6195 23.9934 14.489 24.2902 15.3861 24.3069C14.4945 25.0071 13.4736 25.5248 12.3818 25.8302C11.29 26.1357 10.1487 26.2229 9.02312 26.087C10.9879 27.3506 13.2751 28.0214 15.6111 28.0192C23.5178 28.0192 27.8417 21.4692 27.8417 15.7887C27.8417 15.6037 27.8365 15.4166 27.8283 15.2337C28.6699 14.6254 29.3963 13.8719 29.9733 13.0086L29.9722 13.0075Z" fill="#050526"/>
</g>
<defs>
<clipPath id="clip0_340_10">
<rect width="24.6666" height="24.6666" fill="white" transform="translate(7.1947 7.19444)"/>
</clipPath>
</defs>
</svg>
